<?xml version="1.0" encoding="UTF-8" standalone="no"?><!DOCTYPE svg PUBLIC "-//W3C//DTD SVG 1.1//EN" "http://www.w3.org/Graphics/SVG/1.1/DTD/svg11.dtd"><svg width="100%" height="100%" viewBox="0 0 1721 275" version="1.1" xmlns="http://www.w3.org/2000/svg" xmlns:xlink="http://www.w3.org/1999/xlink" xml:space="preserve" xmlns:serif="http://www.serif.com/" style="fill-rule:evenodd;clip-rule:evenodd;stroke-linejoin:round;stroke-miterlimit:2;"><rect id="Artboard1" x="0" y="0" width="1720.78" height="271.711" style="fill:none;"/><path id="rect955" d="M211.024,268.75l-108.045,0c-3.52,0.478 -7.067,0.733 -10.619,0.765c-46.429,0.023 -84.658,-38.151 -84.703,-84.58c0.002,-34.055 20.551,-64.935 51.964,-78.088c4.794,-29.584 30.557,-51.566 60.527,-51.645c9.297,0.014 18.472,2.135 26.831,6.206c19.748,-35.304 57.135,-57.279 97.586,-57.361c59.961,-0.05 109.885,48.028 112.094,107.948c36.995,7.033 64.06,39.774 64.151,77.605l0,0.152c-0.027,39.933 -30.118,73.911 -69.59,78.579l-0,0.419l-5.636,0c-1.178,0.086 -2.358,0.146 -3.538,0.18c-1.239,-0.031 -2.477,-0.091 -3.713,-0.18l-69.167,0l1.033,-132.295l53.985,0.422l-82.405,-83.703l-83.703,82.405l53.985,0.422l-1.037,132.749Z" style="fill:#63d1ff;fill-rule:nonzero;"/><text x="457.893px" y="265.214px" style="font-family:'Futura-Medium', 'Futura', sans-serif;font-weight:500;font-size:246.013px;fill:#63d1ff;">ClearCloud</text></svg>