<?xml version="1.0" encoding="UTF-8" standalone="no"?><!DOCTYPE svg PUBLIC "-//W3C//DTD SVG 1.1//EN" "http://www.w3.org/Graphics/SVG/1.1/DTD/svg11.dtd"><svg width="100%" height="100%" viewBox="0 0 1721 342" version="1.1" xmlns="http://www.w3.org/2000/svg" xmlns:xlink="http://www.w3.org/1999/xlink" xml:space="preserve" style="fill-rule:evenodd;clip-rule:evenodd;stroke-linejoin:round;stroke-miterlimit:2;"><rect id="Artboard1" x="-0" y="0" width="1720.78" height="339.216" style="fill:none;"/><path d="M508.104,153.739l72.195,-73.996l37.358,-0l-83.846,83.966l84.327,101.505l-37.479,-0l-66.789,-82.525l-5.766,5.766l0,76.759l-27.989,-0l0,-185.471l27.989,-0l0,73.996Z" style="fill:#63d1ff;fill-rule:nonzero;"/><path d="M736.94,213.08l-83.846,-0c0.72,9.61 3.844,17.258 9.369,22.944c5.526,5.605 12.613,8.408 21.262,8.408c6.727,0 12.293,-1.601 16.697,-4.805c4.325,-3.203 9.25,-9.129 14.776,-17.778l22.823,12.733c-3.524,6.006 -7.247,11.152 -11.171,15.436c-3.924,4.284 -8.129,7.808 -12.613,10.571c-4.485,2.763 -9.33,4.785 -14.535,6.066c-5.206,1.281 -10.852,1.922 -16.938,1.922c-17.458,0 -31.472,-5.606 -42.043,-16.817c-10.571,-11.292 -15.856,-26.267 -15.856,-44.927c-0,-18.499 5.125,-33.474 15.375,-44.926c10.331,-11.291 24.025,-16.937 41.083,-16.937c17.217,-0 30.831,5.485 40.842,16.457c9.93,10.891 14.895,25.986 14.895,45.286l-0.12,6.367Zm-27.749,-22.103c-3.763,-14.415 -12.853,-21.622 -27.268,-21.622c-3.283,-0 -6.366,0.5 -9.249,1.501c-2.883,1.001 -5.506,2.443 -7.868,4.325c-2.363,1.882 -4.385,4.144 -6.067,6.787c-1.681,2.643 -2.963,5.646 -3.843,9.009l54.295,0Z" style="fill:#63d1ff;fill-rule:nonzero;"/><path d="M799.164,243.471l-52.614,-95.258l31.352,0l35.797,67.269l33.394,-67.269l30.512,0l-93.216,180.666l-30.872,0l45.647,-85.408Z" style="fill:#63d1ff;fill-rule:nonzero;"/><path d="M901.149,265.214l0,-185.471l38.92,-0c18.659,-0 33.395,1.841 44.206,5.525c11.612,3.604 22.143,9.73 31.592,18.379c19.14,17.458 28.71,40.402 28.71,68.831c-0,28.509 -9.97,51.573 -29.911,69.191c-10.01,8.809 -20.501,14.936 -31.472,18.379c-10.251,3.444 -24.786,5.166 -43.605,5.166l-38.44,-0Zm27.989,-26.307l12.613,-0c12.573,-0 23.024,-1.322 31.352,-3.965c8.329,-2.802 15.857,-7.247 22.583,-13.333c13.775,-12.573 20.662,-28.95 20.662,-49.131c-0,-20.341 -6.807,-36.838 -20.421,-49.491c-12.253,-11.292 -30.311,-16.937 -54.176,-16.937l-12.613,-0l-0,132.857Z" style="fill:#63d1ff;fill-rule:nonzero;"/><path d="M1074.61,148.213l27.028,0l-0,10.451c4.965,-5.205 9.369,-8.769 13.213,-10.691c3.924,-2.002 8.569,-3.003 13.935,-3.003c7.127,-0 14.575,2.322 22.343,6.967l-12.373,24.745c-5.125,-3.683 -10.131,-5.525 -15.016,-5.525c-14.735,-0 -22.102,11.131 -22.102,33.394l-0,60.663l-27.028,-0l-0,-117.001Z" style="fill:#63d1ff;fill-rule:nonzero;"/><path d="M1197.37,148.213l0,117.001l-27.028,-0l0,-117.001l27.028,0Zm-31.112,-48.65c0,-4.725 1.722,-8.809 5.165,-12.253c3.444,-3.443 7.568,-5.165 12.373,-5.165c4.885,0 9.05,1.722 12.493,5.165c3.444,3.364 5.165,7.488 5.165,12.373c0,4.885 -1.721,9.049 -5.165,12.493c-3.363,3.444 -7.488,5.165 -12.373,5.165c-4.885,0 -9.049,-1.721 -12.493,-5.165c-3.443,-3.444 -5.165,-7.648 -5.165,-12.613Z" style="fill:#63d1ff;fill-rule:nonzero;"/><path d="M1246.14,148.213l30.272,65.708l30.151,-65.708l30.391,0l-60.783,125.049l-60.302,-125.049l30.271,0Z" style="fill:#63d1ff;fill-rule:nonzero;"/><path d="M1457.56,213.08l-83.846,-0c0.721,9.61 3.844,17.258 9.369,22.944c5.526,5.605 12.613,8.408 21.262,8.408c6.727,0 12.293,-1.601 16.698,-4.805c4.324,-3.203 9.249,-9.129 14.775,-17.778l22.823,12.733c-3.523,6.006 -7.247,11.152 -11.171,15.436c-3.924,4.284 -8.129,7.808 -12.613,10.571c-4.485,2.763 -9.33,4.785 -14.535,6.066c-5.206,1.281 -10.851,1.922 -16.938,1.922c-17.458,0 -31.472,-5.606 -42.043,-16.817c-10.571,-11.292 -15.856,-26.267 -15.856,-44.927c-0,-18.499 5.125,-33.474 15.376,-44.926c10.33,-11.291 24.024,-16.937 41.082,-16.937c17.218,-0 30.832,5.485 40.842,16.457c9.93,10.891 14.895,25.986 14.895,45.286l-0.12,6.367Zm-27.748,-22.103c-3.764,-14.415 -12.854,-21.622 -27.268,-21.622c-3.284,-0 -6.367,0.5 -9.25,1.501c-2.883,1.001 -5.506,2.443 -7.868,4.325c-2.363,1.882 -4.385,4.144 -6.066,6.787c-1.682,2.643 -2.963,5.646 -3.844,9.009l54.296,0Z" style="fill:#63d1ff;fill-rule:nonzero;"/><path id="rect955" d="M420.157,192.054c-0.577,39.675 -30.643,73.259 -69.969,77.91l-0,0.421l-5.668,0c-1.184,0.087 -2.371,0.147 -3.558,0.181c-1.245,-0.031 -2.49,-0.091 -3.733,-0.181l-236.665,0c-3.54,0.481 -7.106,0.738 -10.678,0.77c-46.688,0.023 -85.13,-38.364 -85.175,-85.052c0.001,-34.244 20.665,-65.297 52.253,-78.523c4.821,-29.748 30.727,-51.853 60.864,-51.932c9.349,0.013 18.575,2.147 26.98,6.24c19.859,-35.5 57.454,-57.598 98.131,-57.681c36.876,-0.03 69.977,18.042 90.636,45.871c-15.305,11.869 -25.178,30.432 -25.184,51.26l-0.002,7.389l-18.545,-0.006l-0.003,7.426l-216.012,-0.065l-0.029,96.412l26.955,0.008l0.022,-74.371l16.783,0.005l-0.016,50.795l26.955,0.008l0.015,-50.795l16.658,0.005l-0.007,24.333l26.954,0.008l0.008,-24.333l101.715,0.031l-0.002,6.647l18.545,0.005l-0.001,2.431c-0.01,35.769 29.08,64.877 64.848,64.888c18.435,0.005 35.099,-7.718 46.925,-20.105c0.006,-0.369 0.008,-0.738 0.009,-1.107l-0,-0.153c-0.026,-10.697 -2.197,-20.99 -6.13,-30.414c1.325,-4.12 2.041,-8.512 2.042,-13.069l0.014,-45.933c0.007,-23.62 -19.2,-42.839 -42.821,-42.847c-10.807,-0.003 -20.694,4.019 -28.24,10.646c6.295,13.316 10.053,28.052 10.626,43.58c26.74,5.084 48.321,23.523 58.379,47.623c-5.543,17.247 -21.74,29.758 -40.804,29.752c-23.621,-0.007 -42.828,-19.226 -42.821,-42.847l0.014,-45.933c0.008,-12.809 5.663,-24.321 14.606,-32.175c-3.194,-6.758 -7.041,-13.152 -11.456,-19.099c10.984,-8.519 24.763,-13.592 39.703,-13.588c35.768,0.011 64.859,29.119 64.848,64.887l-0.014,45.934c-0.005,17.336 -6.842,33.102 -17.955,44.743Z" style="fill:#63d1ff;fill-rule:nonzero;"/></svg>
